<?xml version="1.0" encoding="utf-8" standalone="no"?>
<!DOCTYPE svg PUBLIC "-//W3C//DTD SVG 1.1//EN"
  "http://www.w3.org/Graphics/SVG/1.1/DTD/svg11.dtd">
<svg xmlns:xlink="http://www.w3.org/1999/xlink" width="460.8pt" height="345.6pt" viewBox="0 0 460.8 345.6" xmlns="http://www.w3.org/2000/svg" version="1.1">
 <metadata>
  <rdf:RDF xmlns:dc="http://purl.org/dc/elements/1.1/" xmlns:cc="http://creativecommons.org/ns#" xmlns:rdf="http://www.w3.org/1999/02/22-rdf-syntax-ns#">
   <cc:Work>
    <dc:type rdf:resource="http://purl.org/dc/dcmitype/StillImage"/>
    <dc:date>2023-07-31T17:35:52.557470</dc:date>
    <dc:format>image/svg+xml</dc:format>
    <dc:creator>
     <cc:Agent>
      <dc:title>Matplotlib v3.6.2, https://matplotlib.org/</dc:title>
     </cc:Agent>
    </dc:creator>
   </cc:Work>
  </rdf:RDF>
 </metadata>
 <defs>
  <style type="text/css">*{stroke-linejoin: round; stroke-linecap: butt}</style>
 </defs>
 <g id="figure_1">
  <g id="patch_1">
   <path d="M 0 345.6
L 460.8 345.6
L 460.8 0
L 0 0
z
" style="fill: #ffffff"/>
  </g>
  <g id="axes_1">
   <g id="patch_2">
    <path d="M 49.356 160.58
L 450 160.58
L 450 28.32
L 49.356 28.32
z
" style="fill: #ffffff"/>
   </g>
   <g id="PolyCollection_1">
    <defs>
     <path id="mad0ff25f29" d="M 67.567091 -311.268182
L 67.567091 -229.420613
L 75.000189 -230.518042
L 82.433288 -231.67186
L 89.866386 -230.840464
L 97.299484 -232.088251
L 104.732583 -228.886148
L 112.165681 -230.210179
L 119.598779 -229.250745
L 127.031878 -229.762404
L 134.464976 -230.30615
L 141.898074 -232.388521
L 149.331173 -232.017457
L 156.764271 -232.53105
L 164.197369 -232.246503
L 171.630468 -231.838659
L 179.063566 -228.780166
L 186.496664 -225.173567
L 193.929763 -220.278961
L 201.362861 -215.580016
L 208.795959 -211.377758
L 216.229058 -206.842416
L 223.662156 -204.825317
L 231.095254 -203.94206
L 238.528353 -204.062816
L 245.961451 -205.42978
L 253.394549 -206.440344
L 260.827647 -208.025246
L 268.260746 -208.99729
L 275.693844 -210.082532
L 283.126942 -211.328238
L 290.560041 -211.665282
L 297.993139 -212.278195
L 305.426237 -213.060945
L 312.859336 -214.255225
L 320.292434 -216.053412
L 327.725532 -218.54118
L 335.158631 -220.363806
L 342.591729 -222.525859
L 350.024827 -224.622192
L 357.457926 -225.029172
L 364.891024 -223.677081
L 372.324122 -220.849445
L 379.757221 -217.337921
L 387.190319 -214.815399
L 394.623417 -211.532905
L 402.056516 -208.479973
L 409.489614 -206.760821
L 416.922712 -207.01215
L 424.355811 -207.084812
L 431.788909 -208.069139
L 431.788909 -260.85458
L 431.788909 -260.85458
L 424.355811 -259.906077
L 416.922712 -259.87113
L 409.489614 -259.659371
L 402.056516 -261.41989
L 394.623417 -264.515904
L 387.190319 -267.843094
L 379.757221 -270.411794
L 372.324122 -273.970817
L 364.891024 -276.847086
L 357.457926 -278.248718
L 350.024827 -277.891928
L 342.591729 -275.846139
L 335.158631 -273.734648
L 327.725532 -271.962228
L 320.292434 -269.523896
L 312.859336 -267.773928
L 305.426237 -266.626162
L 297.993139 -265.887713
L 290.560041 -265.316357
L 283.126942 -265.017592
L 275.693844 -263.80637
L 268.260746 -262.751339
L 260.827647 -261.804831
L 253.394549 -260.240507
L 245.961451 -259.245454
L 238.528353 -257.889071
L 231.095254 -257.774424
L 223.662156 -258.660202
L 216.229058 -260.677655
L 208.795959 -265.213263
L 201.362861 -269.418583
L 193.929763 -274.12722
L 186.496664 -279.043091
L 179.063566 -282.688737
L 171.630468 -285.811718
L 164.197369 -286.318777
L 156.764271 -286.74842
L 149.331173 -286.439162
L 141.898074 -287.089878
L 134.464976 -285.382176
L 127.031878 -285.333012
L 119.598779 -285.468767
L 112.165681 -287.274648
L 104.732583 -287.065703
L 97.299484 -291.765564
L 89.866386 -292.605132
L 82.433288 -296.544445
L 75.000189 -300.631053
L 67.567091 -311.268182
z
" style="stroke: #ff0000; stroke-opacity: 0.3"/>
    </defs>
    <g clip-path="url(#pbffdf6df18)">
     <use xlink:href="#mad0ff25f29" x="0" y="345.6" style="fill: #ff0000; fill-opacity: 0.3; stroke: #ff0000; stroke-opacity: 0.3"/>
    </g>
   </g>
   <g id="PolyCollection_2">
    <defs>
     <path id="mb2c9318c4e" d="M 67.567091 -281.436109
L 67.567091 -257.100712
L 75.000189 -251.733258
L 82.433288 -249.139464
L 89.866386 -244.276101
L 97.299484 -248.142789
L 104.732583 -234.199664
L 112.165681 -244.547419
L 119.598779 -240.497495
L 127.031878 -245.03709
L 134.464976 -248.139294
L 141.898074 -259.242804
L 149.331173 -249.284956
L 156.764271 -249.620996
L 164.197369 -245.686455
L 171.630468 -243.216112
L 179.063566 -223.826233
L 186.496664 -210.825906
L 193.929763 -196.959626
L 201.362861 -192.319426
L 208.795959 -193.804976
L 216.229058 -191.031818
L 223.662156 -205.800946
L 231.095254 -219.326083
L 238.528353 -229.848858
L 245.961451 -241.126403
L 253.394549 -242.072663
L 260.827647 -245.214377
L 268.260746 -242.159932
L 275.693844 -241.439709
L 283.126942 -242.834642
L 290.560041 -237.198061
L 297.993139 -236.693788
L 305.426237 -238.48973
L 312.859336 -242.690928
L 320.292434 -249.272338
L 327.725532 -257.533116
L 335.158631 -256.15597
L 342.591729 -257.95834
L 350.024827 -259.204158
L 357.457926 -247.170663
L 364.891024 -228.147363
L 372.324122 -209.04866
L 379.757221 -196.526415
L 387.190319 -200.169335
L 394.623417 -196.042213
L 402.056516 -194.476088
L 409.489614 -203.92021
L 416.922712 -223.787914
L 424.355811 -229.613494
L 431.788909 -237.326398
L 431.788909 -259.855957
L 431.788909 -259.855957
L 424.355811 -252.143054
L 416.922712 -246.317474
L 409.489614 -226.449769
L 402.056516 -217.005647
L 394.623417 -218.571773
L 387.190319 -222.698895
L 379.757221 -219.055975
L 372.324122 -231.578219
L 364.891024 -250.676922
L 357.457926 -269.700223
L 350.024827 -281.733718
L 342.591729 -280.4879
L 335.158631 -278.685529
L 327.725532 -280.062676
L 320.292434 -271.801898
L 312.859336 -265.220488
L 305.426237 -261.01929
L 297.993139 -259.223348
L 290.560041 -259.727621
L 283.126942 -265.364202
L 275.693844 -263.969269
L 268.260746 -264.689492
L 260.827647 -267.743937
L 253.394549 -264.602223
L 245.961451 -263.655962
L 238.528353 -252.378418
L 231.095254 -241.855643
L 223.662156 -228.330506
L 216.229058 -213.561378
L 208.795959 -216.334536
L 201.362861 -214.848985
L 193.929763 -219.489186
L 186.496664 -233.355465
L 179.063566 -246.355793
L 171.630468 -265.745671
L 164.197369 -268.216015
L 156.764271 -272.150555
L 149.331173 -271.814516
L 141.898074 -281.772363
L 134.464976 -270.668853
L 127.031878 -267.56665
L 119.598779 -263.027066
L 112.165681 -267.07704
L 104.732583 -256.7293
L 97.299484 -270.67333
L 89.866386 -266.821736
L 82.433288 -271.735529
L 75.000189 -274.329324
L 67.567091 -281.436109
z
" style="stroke: #000000; stroke-opacity: 0.3"/>
    </defs>
    <g clip-path="url(#pbffdf6df18)">
     <use xlink:href="#mb2c9318c4e" x="0" y="345.6" style="fill-opacity: 0.3; stroke: #000000; stroke-opacity: 0.3"/>
    </g>
   </g>
   <g id="matplotlib.axis_1">
    <g id="xtick_1">
     <g id="line2d_1">
      <defs>
       <path id="m2eebdf2699" d="M 0 0
L 0 3.5
" style="stroke: #000000; stroke-width: 0.8"/>
      </defs>
      <g>
       <use xlink:href="#m2eebdf2699" x="67.567091" y="160.58" style="stroke: #000000; stroke-width: 0.8"/>
      </g>
     </g>
     <g id="text_1">
      <!-- 0.0 -->
      <g transform="translate(59.615528 175.178438) scale(0.1 -0.1)">
       <defs>
        <path id="DejaVuSans-30" d="M 2034 4250
Q 1547 4250 1301 3770
Q 1056 3291 1056 2328
Q 1056 1369 1301 889
Q 1547 409 2034 409
Q 2525 409 2770 889
Q 3016 1369 3016 2328
Q 3016 3291 2770 3770
Q 2525 4250 2034 4250
z
M 2034 4750
Q 2819 4750 3233 4129
Q 3647 3509 3647 2328
Q 3647 1150 3233 529
Q 2819 -91 2034 -91
Q 1250 -91 836 529
Q 422 1150 422 2328
Q 422 3509 836 4129
Q 1250 4750 2034 4750
z
" transform="scale(0.015625)"/>
        <path id="DejaVuSans-2e" d="M 684 794
L 1344 794
L 1344 0
L 684 0
L 684 794
z
" transform="scale(0.015625)"/>
       </defs>
       <use xlink:href="#DejaVuSans-30"/>
       <use xlink:href="#DejaVuSans-2e" x="63.623047"/>
       <use xlink:href="#DejaVuSans-30" x="95.410156"/>
      </g>
     </g>
    </g>
    <g id="xtick_2">
     <g id="line2d_2">
      <g>
       <use xlink:href="#m2eebdf2699" x="140.411455" y="160.58" style="stroke: #000000; stroke-width: 0.8"/>
      </g>
     </g>
     <g id="text_2">
      <!-- 0.2 -->
      <g transform="translate(132.459892 175.178438) scale(0.1 -0.1)">
       <defs>
        <path id="DejaVuSans-32" d="M 1228 531
L 3431 531
L 3431 0
L 469 0
L 469 531
Q 828 903 1448 1529
Q 2069 2156 2228 2338
Q 2531 2678 2651 2914
Q 2772 3150 2772 3378
Q 2772 3750 2511 3984
Q 2250 4219 1831 4219
Q 1534 4219 1204 4116
Q 875 4013 500 3803
L 500 4441
Q 881 4594 1212 4672
Q 1544 4750 1819 4750
Q 2544 4750 2975 4387
Q 3406 4025 3406 3419
Q 3406 3131 3298 2873
Q 3191 2616 2906 2266
Q 2828 2175 2409 1742
Q 1991 1309 1228 531
z
" transform="scale(0.015625)"/>
       </defs>
       <use xlink:href="#DejaVuSans-30"/>
       <use xlink:href="#DejaVuSans-2e" x="63.623047"/>
       <use xlink:href="#DejaVuSans-32" x="95.410156"/>
      </g>
     </g>
    </g>
    <g id="xtick_3">
     <g id="line2d_3">
      <g>
       <use xlink:href="#m2eebdf2699" x="213.255818" y="160.58" style="stroke: #000000; stroke-width: 0.8"/>
      </g>
     </g>
     <g id="text_3">
      <!-- 0.4 -->
      <g transform="translate(205.304256 175.178438) scale(0.1 -0.1)">
       <defs>
        <path id="DejaVuSans-34" d="M 2419 4116
L 825 1625
L 2419 1625
L 2419 4116
z
M 2253 4666
L 3047 4666
L 3047 1625
L 3713 1625
L 3713 1100
L 3047 1100
L 3047 0
L 2419 0
L 2419 1100
L 313 1100
L 313 1709
L 2253 4666
z
" transform="scale(0.015625)"/>
       </defs>
       <use xlink:href="#DejaVuSans-30"/>
       <use xlink:href="#DejaVuSans-2e" x="63.623047"/>
       <use xlink:href="#DejaVuSans-34" x="95.410156"/>
      </g>
     </g>
    </g>
    <g id="xtick_4">
     <g id="line2d_4">
      <g>
       <use xlink:href="#m2eebdf2699" x="286.100182" y="160.58" style="stroke: #000000; stroke-width: 0.8"/>
      </g>
     </g>
     <g id="text_4">
      <!-- 0.6 -->
      <g transform="translate(278.148619 175.178438) scale(0.1 -0.1)">
       <defs>
        <path id="DejaVuSans-36" d="M 2113 2584
Q 1688 2584 1439 2293
Q 1191 2003 1191 1497
Q 1191 994 1439 701
Q 1688 409 2113 409
Q 2538 409 2786 701
Q 3034 994 3034 1497
Q 3034 2003 2786 2293
Q 2538 2584 2113 2584
z
M 3366 4563
L 3366 3988
Q 3128 4100 2886 4159
Q 2644 4219 2406 4219
Q 1781 4219 1451 3797
Q 1122 3375 1075 2522
Q 1259 2794 1537 2939
Q 1816 3084 2150 3084
Q 2853 3084 3261 2657
Q 3669 2231 3669 1497
Q 3669 778 3244 343
Q 2819 -91 2113 -91
Q 1303 -91 875 529
Q 447 1150 447 2328
Q 447 3434 972 4092
Q 1497 4750 2381 4750
Q 2619 4750 2861 4703
Q 3103 4656 3366 4563
z
" transform="scale(0.015625)"/>
       </defs>
       <use xlink:href="#DejaVuSans-30"/>
       <use xlink:href="#DejaVuSans-2e" x="63.623047"/>
       <use xlink:href="#DejaVuSans-36" x="95.410156"/>
      </g>
     </g>
    </g>
    <g id="xtick_5">
     <g id="line2d_5">
      <g>
       <use xlink:href="#m2eebdf2699" x="358.944545" y="160.58" style="stroke: #000000; stroke-width: 0.8"/>
      </g>
     </g>
     <g id="text_5">
      <!-- 0.8 -->
      <g transform="translate(350.992983 175.178438) scale(0.1 -0.1)">
       <defs>
        <path id="DejaVuSans-38" d="M 2034 2216
Q 1584 2216 1326 1975
Q 1069 1734 1069 1313
Q 1069 891 1326 650
Q 1584 409 2034 409
Q 2484 409 2743 651
Q 3003 894 3003 1313
Q 3003 1734 2745 1975
Q 2488 2216 2034 2216
z
M 1403 2484
Q 997 2584 770 2862
Q 544 3141 544 3541
Q 544 4100 942 4425
Q 1341 4750 2034 4750
Q 2731 4750 3128 4425
Q 3525 4100 3525 3541
Q 3525 3141 3298 2862
Q 3072 2584 2669 2484
Q 3125 2378 3379 2068
Q 3634 1759 3634 1313
Q 3634 634 3220 271
Q 2806 -91 2034 -91
Q 1263 -91 848 271
Q 434 634 434 1313
Q 434 1759 690 2068
Q 947 2378 1403 2484
z
M 1172 3481
Q 1172 3119 1398 2916
Q 1625 2713 2034 2713
Q 2441 2713 2670 2916
Q 2900 3119 2900 3481
Q 2900 3844 2670 4047
Q 2441 4250 2034 4250
Q 1625 4250 1398 4047
Q 1172 3844 1172 3481
z
" transform="scale(0.015625)"/>
       </defs>
       <use xlink:href="#DejaVuSans-30"/>
       <use xlink:href="#DejaVuSans-2e" x="63.623047"/>
       <use xlink:href="#DejaVuSans-38" x="95.410156"/>
      </g>
     </g>
    </g>
    <g id="xtick_6">
     <g id="line2d_6">
      <g>
       <use xlink:href="#m2eebdf2699" x="431.788909" y="160.58" style="stroke: #000000; stroke-width: 0.8"/>
      </g>
     </g>
     <g id="text_6">
      <!-- 1.0 -->
      <g transform="translate(423.837347 175.178438) scale(0.1 -0.1)">
       <defs>
        <path id="DejaVuSans-31" d="M 794 531
L 1825 531
L 1825 4091
L 703 3866
L 703 4441
L 1819 4666
L 2450 4666
L 2450 531
L 3481 531
L 3481 0
L 794 0
L 794 531
z
" transform="scale(0.015625)"/>
       </defs>
       <use xlink:href="#DejaVuSans-31"/>
       <use xlink:href="#DejaVuSans-2e" x="63.623047"/>
       <use xlink:href="#DejaVuSans-30" x="95.410156"/>
      </g>
     </g>
    </g>
    <g id="text_7">
     <!-- Time -->
     <g transform="translate(237.444406 188.856562) scale(0.1 -0.1)">
      <defs>
       <path id="DejaVuSans-54" d="M -19 4666
L 3928 4666
L 3928 4134
L 2272 4134
L 2272 0
L 1638 0
L 1638 4134
L -19 4134
L -19 4666
z
" transform="scale(0.015625)"/>
       <path id="DejaVuSans-69" d="M 603 3500
L 1178 3500
L 1178 0
L 603 0
L 603 3500
z
M 603 4863
L 1178 4863
L 1178 4134
L 603 4134
L 603 4863
z
" transform="scale(0.015625)"/>
       <path id="DejaVuSans-6d" d="M 3328 2828
Q 3544 3216 3844 3400
Q 4144 3584 4550 3584
Q 5097 3584 5394 3201
Q 5691 2819 5691 2113
L 5691 0
L 5113 0
L 5113 2094
Q 5113 2597 4934 2840
Q 4756 3084 4391 3084
Q 3944 3084 3684 2787
Q 3425 2491 3425 1978
L 3425 0
L 2847 0
L 2847 2094
Q 2847 2600 2669 2842
Q 2491 3084 2119 3084
Q 1678 3084 1418 2786
Q 1159 2488 1159 1978
L 1159 0
L 581 0
L 581 3500
L 1159 3500
L 1159 2956
Q 1356 3278 1631 3431
Q 1906 3584 2284 3584
Q 2666 3584 2933 3390
Q 3200 3197 3328 2828
z
" transform="scale(0.015625)"/>
       <path id="DejaVuSans-65" d="M 3597 1894
L 3597 1613
L 953 1613
Q 991 1019 1311 708
Q 1631 397 2203 397
Q 2534 397 2845 478
Q 3156 559 3463 722
L 3463 178
Q 3153 47 2828 -22
Q 2503 -91 2169 -91
Q 1331 -91 842 396
Q 353 884 353 1716
Q 353 2575 817 3079
Q 1281 3584 2069 3584
Q 2775 3584 3186 3129
Q 3597 2675 3597 1894
z
M 3022 2063
Q 3016 2534 2758 2815
Q 2500 3097 2075 3097
Q 1594 3097 1305 2825
Q 1016 2553 972 2059
L 3022 2063
z
" transform="scale(0.015625)"/>
      </defs>
      <use xlink:href="#DejaVuSans-54"/>
      <use xlink:href="#DejaVuSans-69" x="57.958984"/>
      <use xlink:href="#DejaVuSans-6d" x="85.742188"/>
      <use xlink:href="#DejaVuSans-65" x="183.154297"/>
     </g>
    </g>
   </g>
   <g id="matplotlib.axis_2">
    <g id="ytick_1">
     <g id="line2d_7">
      <defs>
       <path id="mef896153b3" d="M 0 0
L -3.5 0
" style="stroke: #000000; stroke-width: 0.8"/>
      </defs>
      <g>
       <use xlink:href="#mef896153b3" x="49.356" y="153.496457" style="stroke: #000000; stroke-width: 0.8"/>
      </g>
     </g>
     <g id="text_8">
      <!-- −2 -->
      <g transform="translate(27.613813 157.295675) scale(0.1 -0.1)">
       <defs>
        <path id="DejaVuSans-2212" d="M 678 2272
L 4684 2272
L 4684 1741
L 678 1741
L 678 2272
z
" transform="scale(0.015625)"/>
       </defs>
       <use xlink:href="#DejaVuSans-2212"/>
       <use xlink:href="#DejaVuSans-32" x="83.789062"/>
      </g>
     </g>
    </g>
    <g id="ytick_2">
     <g id="line2d_8">
      <g>
       <use xlink:href="#mef896153b3" x="49.356" y="127.76426" style="stroke: #000000; stroke-width: 0.8"/>
      </g>
     </g>
     <g id="text_9">
      <!-- −1 -->
      <g transform="translate(27.613813 131.563478) scale(0.1 -0.1)">
       <use xlink:href="#DejaVuSans-2212"/>
       <use xlink:href="#DejaVuSans-31" x="83.789062"/>
      </g>
     </g>
    </g>
    <g id="ytick_3">
     <g id="line2d_9">
      <g>
       <use xlink:href="#mef896153b3" x="49.356" y="102.032063" style="stroke: #000000; stroke-width: 0.8"/>
      </g>
     </g>
     <g id="text_10">
      <!-- 0 -->
      <g transform="translate(35.9935 105.831282) scale(0.1 -0.1)">
       <use xlink:href="#DejaVuSans-30"/>
      </g>
     </g>
    </g>
    <g id="ytick_4">
     <g id="line2d_10">
      <g>
       <use xlink:href="#mef896153b3" x="49.356" y="76.299866" style="stroke: #000000; stroke-width: 0.8"/>
      </g>
     </g>
     <g id="text_11">
      <!-- 1 -->
      <g transform="translate(35.9935 80.099085) scale(0.1 -0.1)">
       <use xlink:href="#DejaVuSans-31"/>
      </g>
     </g>
    </g>
    <g id="ytick_5">
     <g id="line2d_11">
      <g>
       <use xlink:href="#mef896153b3" x="49.356" y="50.567669" style="stroke: #000000; stroke-width: 0.8"/>
      </g>
     </g>
     <g id="text_12">
      <!-- 2 -->
      <g transform="translate(35.9935 54.366888) scale(0.1 -0.1)">
       <use xlink:href="#DejaVuSans-32"/>
      </g>
     </g>
    </g>
    <g id="text_13">
     <!-- y -->
     <g transform="translate(21.534125 97.409375) rotate(-90) scale(0.1 -0.1)">
      <defs>
       <path id="DejaVuSans-79" d="M 2059 -325
Q 1816 -950 1584 -1140
Q 1353 -1331 966 -1331
L 506 -1331
L 506 -850
L 844 -850
Q 1081 -850 1212 -737
Q 1344 -625 1503 -206
L 1606 56
L 191 3500
L 800 3500
L 1894 763
L 2988 3500
L 3597 3500
L 2059 -325
z
" transform="scale(0.015625)"/>
      </defs>
      <use xlink:href="#DejaVuSans-79"/>
     </g>
    </g>
   </g>
   <g id="line2d_12">
    <defs>
     <path id="mc544f8ac1d" d="M 0 1.5
C 0.397805 1.5 0.77937 1.341951 1.06066 1.06066
C 1.341951 0.77937 1.5 0.397805 1.5 0
C 1.5 -0.397805 1.341951 -0.77937 1.06066 -1.06066
C 0.77937 -1.341951 0.397805 -1.5 0 -1.5
C -0.397805 -1.5 -0.77937 -1.341951 -1.06066 -1.06066
C -1.341951 -0.77937 -1.5 -0.397805 -1.5 0
C -1.5 0.397805 -1.341951 0.77937 -1.06066 1.06066
C -0.77937 1.341951 -0.397805 1.5 0 1.5
z
" style="stroke: #000000"/>
    </defs>
    <g clip-path="url(#pbffdf6df18)">
     <use xlink:href="#mc544f8ac1d" x="67.567091" y="74.599319" style="stroke: #000000"/>
     <use xlink:href="#mc544f8ac1d" x="75.000189" y="84.908216" style="stroke: #000000"/>
     <use xlink:href="#mc544f8ac1d" x="82.433288" y="84.441666" style="stroke: #000000"/>
     <use xlink:href="#mc544f8ac1d" x="89.866386" y="91.002414" style="stroke: #000000"/>
     <use xlink:href="#mc544f8ac1d" x="97.299484" y="82.791967" style="stroke: #000000"/>
     <use xlink:href="#mc544f8ac1d" x="104.732583" y="106.74009" style="stroke: #000000"/>
     <use xlink:href="#mc544f8ac1d" x="112.165681" y="82.136035" style="stroke: #000000"/>
     <use xlink:href="#mc544f8ac1d" x="119.598779" y="96.89955" style="stroke: #000000"/>
     <use xlink:href="#mc544f8ac1d" x="127.031878" y="86.17995" style="stroke: #000000"/>
     <use xlink:href="#mc544f8ac1d" x="134.464976" y="84.936283" style="stroke: #000000"/>
     <use xlink:href="#mc544f8ac1d" x="141.898074" y="69.743582" style="stroke: #000000"/>
     <use xlink:href="#mc544f8ac1d" x="149.331173" y="90.843486" style="stroke: #000000"/>
     <use xlink:href="#mc544f8ac1d" x="156.764271" y="82.158633" style="stroke: #000000"/>
     <use xlink:href="#mc544f8ac1d" x="164.197369" y="89.628517" style="stroke: #000000"/>
     <use xlink:href="#mc544f8ac1d" x="171.630468" y="90.937385" style="stroke: #000000"/>
     <use xlink:href="#mc544f8ac1d" x="179.063566" y="118.768476" style="stroke: #000000"/>
     <use xlink:href="#mc544f8ac1d" x="186.496664" y="126.348431" style="stroke: #000000"/>
     <use xlink:href="#mc544f8ac1d" x="193.929763" y="142.039772" style="stroke: #000000"/>
     <use xlink:href="#mc544f8ac1d" x="201.362861" y="142.80306" style="stroke: #000000"/>
     <use xlink:href="#mc544f8ac1d" x="208.795959" y="140.341742" style="stroke: #000000"/>
     <use xlink:href="#mc544f8ac1d" x="216.229058" y="146.484742" style="stroke: #000000"/>
     <use xlink:href="#mc544f8ac1d" x="223.662156" y="122.767105" style="stroke: #000000"/>
     <use xlink:href="#mc544f8ac1d" x="231.095254" y="112.461638" style="stroke: #000000"/>
     <use xlink:href="#mc544f8ac1d" x="238.528353" y="102.942615" style="stroke: #000000"/>
     <use xlink:href="#mc544f8ac1d" x="245.961451" y="90.277562" style="stroke: #000000"/>
     <use xlink:href="#mc544f8ac1d" x="253.394549" y="93.867151" style="stroke: #000000"/>
     <use xlink:href="#mc544f8ac1d" x="260.827647" y="87.658368" style="stroke: #000000"/>
     <use xlink:href="#mc544f8ac1d" x="268.260746" y="93.727385" style="stroke: #000000"/>
     <use xlink:href="#mc544f8ac1d" x="275.693844" y="92.297403" style="stroke: #000000"/>
     <use xlink:href="#mc544f8ac1d" x="283.126942" y="90.222332" style="stroke: #000000"/>
     <use xlink:href="#mc544f8ac1d" x="290.560041" y="99.617276" style="stroke: #000000"/>
     <use xlink:href="#mc544f8ac1d" x="297.993139" y="96.614941" style="stroke: #000000"/>
     <use xlink:href="#mc544f8ac1d" x="305.426237" y="94.560733" style="stroke: #000000"/>
     <use xlink:href="#mc544f8ac1d" x="312.859336" y="89.665961" style="stroke: #000000"/>
     <use xlink:href="#mc544f8ac1d" x="320.292434" y="82.280984" style="stroke: #000000"/>
     <use xlink:href="#mc544f8ac1d" x="327.725532" y="73.440418" style="stroke: #000000"/>
     <use xlink:href="#mc544f8ac1d" x="335.158631" y="79.46462" style="stroke: #000000"/>
     <use xlink:href="#mc544f8ac1d" x="342.591729" y="74.39715" style="stroke: #000000"/>
     <use xlink:href="#mc544f8ac1d" x="350.024827" y="73.725985" style="stroke: #000000"/>
     <use xlink:href="#mc544f8ac1d" x="357.457926" y="92.024445" style="stroke: #000000"/>
     <use xlink:href="#mc544f8ac1d" x="364.891024" y="112.39166" style="stroke: #000000"/>
     <use xlink:href="#mc544f8ac1d" x="372.324122" y="130.723054" style="stroke: #000000"/>
     <use xlink:href="#mc544f8ac1d" x="379.757221" y="140.721082" style="stroke: #000000"/>
     <use xlink:href="#mc544f8ac1d" x="387.190319" y="131.104813" style="stroke: #000000"/>
     <use xlink:href="#mc544f8ac1d" x="394.623417" y="142.051041" style="stroke: #000000"/>
     <use xlink:href="#mc544f8ac1d" x="402.056516" y="141.482281" style="stroke: #000000"/>
     <use xlink:href="#mc544f8ac1d" x="409.489614" y="127.175354" style="stroke: #000000"/>
     <use xlink:href="#mc544f8ac1d" x="416.922712" y="104.031663" style="stroke: #000000"/>
     <use xlink:href="#mc544f8ac1d" x="424.355811" y="106.326805" style="stroke: #000000"/>
     <use xlink:href="#mc544f8ac1d" x="431.788909" y="95.03492" style="stroke: #000000"/>
    </g>
   </g>
   <g id="line2d_13">
    <path d="M 67.567091 75.255602
L 75.000189 80.025453
L 82.433288 81.491847
L 89.866386 83.877202
L 97.299484 83.673092
L 104.732583 87.624075
L 112.165681 86.857586
L 119.598779 88.240244
L 127.031878 88.052292
L 134.464976 87.755837
L 141.898074 85.8608
L 149.331173 86.37169
L 156.764271 85.960265
L 164.197369 86.31736
L 171.630468 86.774811
L 179.063566 89.865548
L 186.496664 93.491671
L 193.929763 98.396909
L 201.362861 103.100701
L 208.795959 107.304489
L 216.229058 111.839965
L 223.662156 113.857241
L 231.095254 114.741758
L 238.528353 114.624057
L 245.961451 113.262383
L 253.394549 112.259574
L 260.827647 110.684961
L 268.260746 109.725686
L 275.693844 108.655549
L 283.126942 107.427085
L 290.560041 107.109181
L 297.993139 106.517046
L 305.426237 105.756447
L 312.859336 104.585423
L 320.292434 102.811346
L 327.725532 100.348296
L 335.158631 98.550773
L 342.591729 96.414001
L 350.024827 94.34294
L 357.457926 93.961055
L 364.891024 95.337917
L 372.324122 98.189869
L 379.757221 101.725143
L 387.190319 104.270754
L 394.623417 107.575595
L 402.056516 110.650069
L 409.489614 112.389904
L 416.922712 112.15836
L 424.355811 112.104556
L 431.788909 111.13814
" clip-path="url(#pbffdf6df18)" style="fill: none; stroke: #ff0000; stroke-width: 1.5; stroke-linecap: square"/>
   </g>
   <g id="line2d_14">
    <path d="M 67.567091 76.33159
L 75.000189 82.568709
L 82.433288 85.162504
L 89.866386 90.051082
L 97.299484 86.19194
L 104.732583 100.135518
L 112.165681 89.78777
L 119.598779 93.83772
L 127.031878 89.29813
L 134.464976 86.195926
L 141.898074 75.092417
L 149.331173 85.050264
L 156.764271 84.714224
L 164.197369 88.648765
L 171.630468 91.119109
L 179.063566 110.508987
L 186.496664 123.509314
L 193.929763 137.375594
L 201.362861 142.015795
L 208.795959 140.530244
L 216.229058 143.303402
L 223.662156 128.534274
L 231.095254 115.009137
L 238.528353 104.486362
L 245.961451 93.208818
L 253.394549 92.262557
L 260.827647 89.120843
L 268.260746 92.175288
L 275.693844 92.895511
L 283.126942 91.500578
L 290.560041 97.137159
L 297.993139 97.641432
L 305.426237 95.84549
L 312.859336 91.644292
L 320.292434 85.062882
L 327.725532 76.802104
L 335.158631 78.17925
L 342.591729 76.37688
L 350.024827 75.131062
L 357.457926 87.164557
L 364.891024 106.187857
L 372.324122 125.28656
L 379.757221 137.808805
L 387.190319 134.165885
L 394.623417 138.293007
L 402.056516 139.859133
L 409.489614 130.41501
L 416.922712 110.547306
L 424.355811 104.721726
L 431.788909 97.008823
" clip-path="url(#pbffdf6df18)" style="fill: none; stroke: #000000; stroke-width: 1.5; stroke-linecap: square"/>
   </g>
   <g id="patch_3">
    <path d="M 49.356 153.496457
L 49.356 50.567669
" style="fill: none; stroke: #000000; stroke-width: 0.8; stroke-linejoin: miter; stroke-linecap: square"/>
   </g>
   <g id="patch_4">
    <path d="M 67.567091 160.58
L 431.788909 160.58
" style="fill: none; stroke: #000000; stroke-width: 0.8; stroke-linejoin: miter; stroke-linecap: square"/>
   </g>
   <g id="text_14">
    <!-- Matern32 (fill between $\pm1$ std) -->
    <g transform="translate(157.338 22.32) scale(0.12 -0.12)">
     <defs>
      <path id="DejaVuSans-4d" d="M 628 4666
L 1569 4666
L 2759 1491
L 3956 4666
L 4897 4666
L 4897 0
L 4281 0
L 4281 4097
L 3078 897
L 2444 897
L 1241 4097
L 1241 0
L 628 0
L 628 4666
z
" transform="scale(0.015625)"/>
      <path id="DejaVuSans-61" d="M 2194 1759
Q 1497 1759 1228 1600
Q 959 1441 959 1056
Q 959 750 1161 570
Q 1363 391 1709 391
Q 2188 391 2477 730
Q 2766 1069 2766 1631
L 2766 1759
L 2194 1759
z
M 3341 1997
L 3341 0
L 2766 0
L 2766 531
Q 2569 213 2275 61
Q 1981 -91 1556 -91
Q 1019 -91 701 211
Q 384 513 384 1019
Q 384 1609 779 1909
Q 1175 2209 1959 2209
L 2766 2209
L 2766 2266
Q 2766 2663 2505 2880
Q 2244 3097 1772 3097
Q 1472 3097 1187 3025
Q 903 2953 641 2809
L 641 3341
Q 956 3463 1253 3523
Q 1550 3584 1831 3584
Q 2591 3584 2966 3190
Q 3341 2797 3341 1997
z
" transform="scale(0.015625)"/>
      <path id="DejaVuSans-74" d="M 1172 4494
L 1172 3500
L 2356 3500
L 2356 3053
L 1172 3053
L 1172 1153
Q 1172 725 1289 603
Q 1406 481 1766 481
L 2356 481
L 2356 0
L 1766 0
Q 1100 0 847 248
Q 594 497 594 1153
L 594 3053
L 172 3053
L 172 3500
L 594 3500
L 594 4494
L 1172 4494
z
" transform="scale(0.015625)"/>
      <path id="DejaVuSans-72" d="M 2631 2963
Q 2534 3019 2420 3045
Q 2306 3072 2169 3072
Q 1681 3072 1420 2755
Q 1159 2438 1159 1844
L 1159 0
L 581 0
L 581 3500
L 1159 3500
L 1159 2956
Q 1341 3275 1631 3429
Q 1922 3584 2338 3584
Q 2397 3584 2469 3576
Q 2541 3569 2628 3553
L 2631 2963
z
" transform="scale(0.015625)"/>
      <path id="DejaVuSans-6e" d="M 3513 2113
L 3513 0
L 2938 0
L 2938 2094
Q 2938 2591 2744 2837
Q 2550 3084 2163 3084
Q 1697 3084 1428 2787
Q 1159 2491 1159 1978
L 1159 0
L 581 0
L 581 3500
L 1159 3500
L 1159 2956
Q 1366 3272 1645 3428
Q 1925 3584 2291 3584
Q 2894 3584 3203 3211
Q 3513 2838 3513 2113
z
" transform="scale(0.015625)"/>
      <path id="DejaVuSans-33" d="M 2597 2516
Q 3050 2419 3304 2112
Q 3559 1806 3559 1356
Q 3559 666 3084 287
Q 2609 -91 1734 -91
Q 1441 -91 1130 -33
Q 819 25 488 141
L 488 750
Q 750 597 1062 519
Q 1375 441 1716 441
Q 2309 441 2620 675
Q 2931 909 2931 1356
Q 2931 1769 2642 2001
Q 2353 2234 1838 2234
L 1294 2234
L 1294 2753
L 1863 2753
Q 2328 2753 2575 2939
Q 2822 3125 2822 3475
Q 2822 3834 2567 4026
Q 2313 4219 1838 4219
Q 1578 4219 1281 4162
Q 984 4106 628 3988
L 628 4550
Q 988 4650 1302 4700
Q 1616 4750 1894 4750
Q 2613 4750 3031 4423
Q 3450 4097 3450 3541
Q 3450 3153 3228 2886
Q 3006 2619 2597 2516
z
" transform="scale(0.015625)"/>
      <path id="DejaVuSans-20" transform="scale(0.015625)"/>
      <path id="DejaVuSans-28" d="M 1984 4856
Q 1566 4138 1362 3434
Q 1159 2731 1159 2009
Q 1159 1288 1364 580
Q 1569 -128 1984 -844
L 1484 -844
Q 1016 -109 783 600
Q 550 1309 550 2009
Q 550 2706 781 3412
Q 1013 4119 1484 4856
L 1984 4856
z
" transform="scale(0.015625)"/>
      <path id="DejaVuSans-66" d="M 2375 4863
L 2375 4384
L 1825 4384
Q 1516 4384 1395 4259
Q 1275 4134 1275 3809
L 1275 3500
L 2222 3500
L 2222 3053
L 1275 3053
L 1275 0
L 697 0
L 697 3053
L 147 3053
L 147 3500
L 697 3500
L 697 3744
Q 697 4328 969 4595
Q 1241 4863 1831 4863
L 2375 4863
z
" transform="scale(0.015625)"/>
      <path id="DejaVuSans-6c" d="M 603 4863
L 1178 4863
L 1178 0
L 603 0
L 603 4863
z
" transform="scale(0.015625)"/>
      <path id="DejaVuSans-62" d="M 3116 1747
Q 3116 2381 2855 2742
Q 2594 3103 2138 3103
Q 1681 3103 1420 2742
Q 1159 2381 1159 1747
Q 1159 1113 1420 752
Q 1681 391 2138 391
Q 2594 391 2855 752
Q 3116 1113 3116 1747
z
M 1159 2969
Q 1341 3281 1617 3432
Q 1894 3584 2278 3584
Q 2916 3584 3314 3078
Q 3713 2572 3713 1747
Q 3713 922 3314 415
Q 2916 -91 2278 -91
Q 1894 -91 1617 61
Q 1341 213 1159 525
L 1159 0
L 581 0
L 581 4863
L 1159 4863
L 1159 2969
z
" transform="scale(0.015625)"/>
      <path id="DejaVuSans-77" d="M 269 3500
L 844 3500
L 1563 769
L 2278 3500
L 2956 3500
L 3675 769
L 4391 3500
L 4966 3500
L 4050 0
L 3372 0
L 2619 2869
L 1863 0
L 1184 0
L 269 3500
z
" transform="scale(0.015625)"/>
      <path id="DejaVuSans-b1" d="M 2944 4013
L 2944 2803
L 4684 2803
L 4684 2272
L 2944 2272
L 2944 1063
L 2419 1063
L 2419 2272
L 678 2272
L 678 2803
L 2419 2803
L 2419 4013
L 2944 4013
z
M 678 531
L 4684 531
L 4684 0
L 678 0
L 678 531
z
" transform="scale(0.015625)"/>
      <path id="DejaVuSans-73" d="M 2834 3397
L 2834 2853
Q 2591 2978 2328 3040
Q 2066 3103 1784 3103
Q 1356 3103 1142 2972
Q 928 2841 928 2578
Q 928 2378 1081 2264
Q 1234 2150 1697 2047
L 1894 2003
Q 2506 1872 2764 1633
Q 3022 1394 3022 966
Q 3022 478 2636 193
Q 2250 -91 1575 -91
Q 1294 -91 989 -36
Q 684 19 347 128
L 347 722
Q 666 556 975 473
Q 1284 391 1588 391
Q 1994 391 2212 530
Q 2431 669 2431 922
Q 2431 1156 2273 1281
Q 2116 1406 1581 1522
L 1381 1569
Q 847 1681 609 1914
Q 372 2147 372 2553
Q 372 3047 722 3315
Q 1072 3584 1716 3584
Q 2034 3584 2315 3537
Q 2597 3491 2834 3397
z
" transform="scale(0.015625)"/>
      <path id="DejaVuSans-64" d="M 2906 2969
L 2906 4863
L 3481 4863
L 3481 0
L 2906 0
L 2906 525
Q 2725 213 2448 61
Q 2172 -91 1784 -91
Q 1150 -91 751 415
Q 353 922 353 1747
Q 353 2572 751 3078
Q 1150 3584 1784 3584
Q 2172 3584 2448 3432
Q 2725 3281 2906 2969
z
M 947 1747
Q 947 1113 1208 752
Q 1469 391 1925 391
Q 2381 391 2643 752
Q 2906 1113 2906 1747
Q 2906 2381 2643 2742
Q 2381 3103 1925 3103
Q 1469 3103 1208 2742
Q 947 2381 947 1747
z
" transform="scale(0.015625)"/>
      <path id="DejaVuSans-29" d="M 513 4856
L 1013 4856
Q 1481 4119 1714 3412
Q 1947 2706 1947 2009
Q 1947 1309 1714 600
Q 1481 -109 1013 -844
L 513 -844
Q 928 -128 1133 580
Q 1338 1288 1338 2009
Q 1338 2731 1133 3434
Q 928 4138 513 4856
z
" transform="scale(0.015625)"/>
     </defs>
     <use xlink:href="#DejaVuSans-4d" transform="translate(0 0.015625)"/>
     <use xlink:href="#DejaVuSans-61" transform="translate(86.279297 0.015625)"/>
     <use xlink:href="#DejaVuSans-74" transform="translate(147.558594 0.015625)"/>
     <use xlink:href="#DejaVuSans-65" transform="translate(186.767578 0.015625)"/>
     <use xlink:href="#DejaVuSans-72" transform="translate(248.291016 0.015625)"/>
     <use xlink:href="#DejaVuSans-6e" transform="translate(289.404297 0.015625)"/>
     <use xlink:href="#DejaVuSans-33" transform="translate(352.783203 0.015625)"/>
     <use xlink:href="#DejaVuSans-32" transform="translate(416.40625 0.015625)"/>
     <use xlink:href="#DejaVuSans-20" transform="translate(480.029297 0.015625)"/>
     <use xlink:href="#DejaVuSans-28" transform="translate(511.816406 0.015625)"/>
     <use xlink:href="#DejaVuSans-66" transform="translate(550.830078 0.015625)"/>
     <use xlink:href="#DejaVuSans-69" transform="translate(586.035156 0.015625)"/>
     <use xlink:href="#DejaVuSans-6c" transform="translate(613.818359 0.015625)"/>
     <use xlink:href="#DejaVuSans-6c" transform="translate(641.601562 0.015625)"/>
     <use xlink:href="#DejaVuSans-20" transform="translate(669.384766 0.015625)"/>
     <use xlink:href="#DejaVuSans-62" transform="translate(701.171875 0.015625)"/>
     <use xlink:href="#DejaVuSans-65" transform="translate(764.648438 0.015625)"/>
     <use xlink:href="#DejaVuSans-74" transform="translate(826.171875 0.015625)"/>
     <use xlink:href="#DejaVuSans-77" transform="translate(865.380859 0.015625)"/>
     <use xlink:href="#DejaVuSans-65" transform="translate(947.167969 0.015625)"/>
     <use xlink:href="#DejaVuSans-65" transform="translate(1008.691406 0.015625)"/>
     <use xlink:href="#DejaVuSans-6e" transform="translate(1070.214844 0.015625)"/>
     <use xlink:href="#DejaVuSans-20" transform="translate(1133.59375 0.015625)"/>
     <use xlink:href="#DejaVuSans-b1" transform="translate(1165.380859 0.015625)"/>
     <use xlink:href="#DejaVuSans-31" transform="translate(1249.169922 0.015625)"/>
     <use xlink:href="#DejaVuSans-20" transform="translate(1312.792969 0.015625)"/>
     <use xlink:href="#DejaVuSans-73" transform="translate(1344.580078 0.015625)"/>
     <use xlink:href="#DejaVuSans-74" transform="translate(1396.679688 0.015625)"/>
     <use xlink:href="#DejaVuSans-64" transform="translate(1435.888672 0.015625)"/>
     <use xlink:href="#DejaVuSans-29" transform="translate(1499.365234 0.015625)"/>
    </g>
   </g>
   <g id="legend_1">
    <g id="patch_5">
     <path d="M 365.423437 80.354375
L 443 80.354375
Q 445 80.354375 445 78.354375
L 445 35.32
Q 445 33.32 443 33.32
L 365.423437 33.32
Q 363.423437 33.32 363.423437 35.32
L 363.423437 78.354375
Q 363.423437 80.354375 365.423437 80.354375
z
" style="fill: #ffffff; opacity: 0.8; stroke: #cccccc; stroke-linejoin: miter"/>
    </g>
    <g id="line2d_15">
     <g>
      <use xlink:href="#mc544f8ac1d" x="377.423437" y="41.418437" style="stroke: #000000"/>
     </g>
    </g>
    <g id="text_15">
     <!-- data -->
     <g transform="translate(395.423437 44.918437) scale(0.1 -0.1)">
      <use xlink:href="#DejaVuSans-64"/>
      <use xlink:href="#DejaVuSans-61" x="63.476562"/>
      <use xlink:href="#DejaVuSans-74" x="124.755859"/>
      <use xlink:href="#DejaVuSans-61" x="163.964844"/>
     </g>
    </g>
    <g id="line2d_16">
     <path d="M 367.423437 56.096563
L 377.423437 56.096563
L 387.423437 56.096563
" style="fill: none; stroke: #ff0000; stroke-width: 1.5; stroke-linecap: square"/>
    </g>
    <g id="text_16">
     <!-- before fit -->
     <g transform="translate(395.423437 59.596563) scale(0.1 -0.1)">
      <defs>
       <path id="DejaVuSans-6f" d="M 1959 3097
Q 1497 3097 1228 2736
Q 959 2375 959 1747
Q 959 1119 1226 758
Q 1494 397 1959 397
Q 2419 397 2687 759
Q 2956 1122 2956 1747
Q 2956 2369 2687 2733
Q 2419 3097 1959 3097
z
M 1959 3584
Q 2709 3584 3137 3096
Q 3566 2609 3566 1747
Q 3566 888 3137 398
Q 2709 -91 1959 -91
Q 1206 -91 779 398
Q 353 888 353 1747
Q 353 2609 779 3096
Q 1206 3584 1959 3584
z
" transform="scale(0.015625)"/>
      </defs>
      <use xlink:href="#DejaVuSans-62"/>
      <use xlink:href="#DejaVuSans-65" x="63.476562"/>
      <use xlink:href="#DejaVuSans-66" x="125"/>
      <use xlink:href="#DejaVuSans-6f" x="160.205078"/>
      <use xlink:href="#DejaVuSans-72" x="221.386719"/>
      <use xlink:href="#DejaVuSans-65" x="260.25"/>
      <use xlink:href="#DejaVuSans-20" x="321.773438"/>
      <use xlink:href="#DejaVuSans-66" x="353.560547"/>
      <use xlink:href="#DejaVuSans-69" x="388.765625"/>
      <use xlink:href="#DejaVuSans-74" x="416.548828"/>
     </g>
    </g>
    <g id="line2d_17">
     <path d="M 367.423437 70.774687
L 377.423437 70.774687
L 387.423437 70.774687
" style="fill: none; stroke: #000000; stroke-width: 1.5; stroke-linecap: square"/>
    </g>
    <g id="text_17">
     <!-- after fit -->
     <g transform="translate(395.423437 74.274687) scale(0.1 -0.1)">
      <use xlink:href="#DejaVuSans-61"/>
      <use xlink:href="#DejaVuSans-66" x="61.279297"/>
      <use xlink:href="#DejaVuSans-74" x="94.734375"/>
      <use xlink:href="#DejaVuSans-65" x="133.943359"/>
      <use xlink:href="#DejaVuSans-72" x="195.466797"/>
      <use xlink:href="#DejaVuSans-20" x="236.580078"/>
      <use xlink:href="#DejaVuSans-66" x="268.367188"/>
      <use xlink:href="#DejaVuSans-69" x="303.572266"/>
      <use xlink:href="#DejaVuSans-74" x="331.355469"/>
     </g>
    </g>
   </g>
  </g>
  <g id="axes_2">
   <g id="table_1">
    <g id="patch_6">
     <path d="M 49.356 235.605
L 129.4848 235.605
L 129.4848 202.54
L 49.356 202.54
z
" style="fill: #ffffff; stroke: #000000; stroke-linejoin: miter"/>
    </g>
    <g id="text_18">
     <!-- θ -->
     <g transform="translate(86.666962 221.555937) scale(0.09 -0.09)">
      <defs>
       <path id="DejaVuSans-3b8" d="M 2953 2219
L 963 2219
Q 1009 1284 1225 888
Q 1494 400 1959 400
Q 2428 400 2688 891
Q 2916 1322 2953 2219
z
M 2944 2750
Q 2856 3638 2688 3950
Q 2419 4444 1959 4444
Q 1481 4444 1228 3956
Q 1028 3563 969 2750
L 2944 2750
z
M 1959 4913
Q 2709 4913 3138 4250
Q 3566 3591 3566 2422
Q 3566 1256 3138 594
Q 2709 -72 1959 -72
Q 1206 -72 781 594
Q 353 1256 353 2422
Q 353 3591 781 4250
Q 1206 4913 1959 4913
z
" transform="scale(0.015625)"/>
      </defs>
      <use xlink:href="#DejaVuSans-3b8"/>
     </g>
    </g>
    <g id="patch_7">
     <path d="M 129.4848 235.605
L 209.6136 235.605
L 209.6136 202.54
L 129.4848 202.54
z
" style="fill: #ffffff; stroke: #000000; stroke-linejoin: miter"/>
    </g>
    <g id="text_19">
     <!-- σ(θ) -->
     <g transform="translate(160.432481 221.555937) scale(0.09 -0.09)">
      <defs>
       <path id="DejaVuSans-3c3" d="M 1959 3044
Q 1484 3044 1228 2700
Q 959 2341 959 1747
Q 959 1119 1226 758
Q 1494 397 1959 397
Q 2419 397 2687 759
Q 2956 1122 2956 1747
Q 2956 2319 2688 2700
Q 2441 3044 1959 3044
z
M 1959 3500
L 3869 3500
L 3869 2925
L 3225 2925
Q 3566 2438 3566 1747
Q 3566 888 3138 400
Q 2709 -91 1959 -91
Q 1206 -91 781 400
Q 353 888 353 1747
Q 353 2613 781 3097
Q 1134 3500 1959 3500
z
" transform="scale(0.015625)"/>
      </defs>
      <use xlink:href="#DejaVuSans-3c3"/>
      <use xlink:href="#DejaVuSans-28" x="63.378906"/>
      <use xlink:href="#DejaVuSans-3b8" x="102.392578"/>
      <use xlink:href="#DejaVuSans-29" x="163.574219"/>
     </g>
    </g>
    <g id="patch_8">
     <path d="M 209.6136 235.605
L 289.7424 235.605
L 289.7424 202.54
L 209.6136 202.54
z
" style="fill: #ffffff; stroke: #000000; stroke-linejoin: miter"/>
    </g>
    <g id="text_20">
     <!-- pvalue -->
     <g transform="translate(234.529172 221.555937) scale(0.09 -0.09)">
      <defs>
       <path id="DejaVuSans-70" d="M 1159 525
L 1159 -1331
L 581 -1331
L 581 3500
L 1159 3500
L 1159 2969
Q 1341 3281 1617 3432
Q 1894 3584 2278 3584
Q 2916 3584 3314 3078
Q 3713 2572 3713 1747
Q 3713 922 3314 415
Q 2916 -91 2278 -91
Q 1894 -91 1617 61
Q 1341 213 1159 525
z
M 3116 1747
Q 3116 2381 2855 2742
Q 2594 3103 2138 3103
Q 1681 3103 1420 2742
Q 1159 2381 1159 1747
Q 1159 1113 1420 752
Q 1681 391 2138 391
Q 2594 391 2855 752
Q 3116 1113 3116 1747
z
" transform="scale(0.015625)"/>
       <path id="DejaVuSans-76" d="M 191 3500
L 800 3500
L 1894 563
L 2988 3500
L 3597 3500
L 2284 0
L 1503 0
L 191 3500
z
" transform="scale(0.015625)"/>
       <path id="DejaVuSans-75" d="M 544 1381
L 544 3500
L 1119 3500
L 1119 1403
Q 1119 906 1312 657
Q 1506 409 1894 409
Q 2359 409 2629 706
Q 2900 1003 2900 1516
L 2900 3500
L 3475 3500
L 3475 0
L 2900 0
L 2900 538
Q 2691 219 2414 64
Q 2138 -91 1772 -91
Q 1169 -91 856 284
Q 544 659 544 1381
z
M 1991 3584
L 1991 3584
z
" transform="scale(0.015625)"/>
      </defs>
      <use xlink:href="#DejaVuSans-70"/>
      <use xlink:href="#DejaVuSans-76" x="63.476562"/>
      <use xlink:href="#DejaVuSans-61" x="122.65625"/>
      <use xlink:href="#DejaVuSans-6c" x="183.935547"/>
      <use xlink:href="#DejaVuSans-75" x="211.71875"/>
      <use xlink:href="#DejaVuSans-65" x="275.097656"/>
     </g>
    </g>
    <g id="patch_9">
     <path d="M 289.7424 235.605
L 369.8712 235.605
L 369.8712 202.54
L 289.7424 202.54
z
" style="fill: #ffffff; stroke: #000000; stroke-linejoin: miter"/>
    </g>
    <g id="text_21">
     <!-- |g(η)| -->
     <g transform="translate(317.554847 221.450469) scale(0.09 -0.09)">
      <defs>
       <path id="DejaVuSans-7c" d="M 1344 4891
L 1344 -1509
L 813 -1509
L 813 4891
L 1344 4891
z
" transform="scale(0.015625)"/>
       <path id="DejaVuSans-67" d="M 2906 1791
Q 2906 2416 2648 2759
Q 2391 3103 1925 3103
Q 1463 3103 1205 2759
Q 947 2416 947 1791
Q 947 1169 1205 825
Q 1463 481 1925 481
Q 2391 481 2648 825
Q 2906 1169 2906 1791
z
M 3481 434
Q 3481 -459 3084 -895
Q 2688 -1331 1869 -1331
Q 1566 -1331 1297 -1286
Q 1028 -1241 775 -1147
L 775 -588
Q 1028 -725 1275 -790
Q 1522 -856 1778 -856
Q 2344 -856 2625 -561
Q 2906 -266 2906 331
L 2906 616
Q 2728 306 2450 153
Q 2172 0 1784 0
Q 1141 0 747 490
Q 353 981 353 1791
Q 353 2603 747 3093
Q 1141 3584 1784 3584
Q 2172 3584 2450 3431
Q 2728 3278 2906 2969
L 2906 3500
L 3481 3500
L 3481 434
z
" transform="scale(0.015625)"/>
       <path id="DejaVuSans-3b7" d="M 3513 2113
L 3513 -1331
L 2938 -1331
L 2938 2094
Q 2938 2591 2744 2837
Q 2550 3084 2163 3084
Q 1697 3084 1428 2787
Q 1159 2491 1159 1978
L 1159 0
L 581 0
L 581 3500
L 1159 3500
L 1159 2956
Q 1366 3272 1644 3428
Q 1925 3584 2291 3584
Q 2894 3584 3203 3213
Q 3513 2838 3513 2113
z
" transform="scale(0.015625)"/>
      </defs>
      <use xlink:href="#DejaVuSans-7c"/>
      <use xlink:href="#DejaVuSans-67" x="33.691406"/>
      <use xlink:href="#DejaVuSans-28" x="97.167969"/>
      <use xlink:href="#DejaVuSans-3b7" x="136.181641"/>
      <use xlink:href="#DejaVuSans-29" x="199.560547"/>
      <use xlink:href="#DejaVuSans-7c" x="238.574219"/>
     </g>
    </g>
    <g id="patch_10">
     <path d="M 369.8712 235.605
L 450 235.605
L 450 202.54
L 369.8712 202.54
z
" style="fill: #ffffff; stroke: #000000; stroke-linejoin: miter"/>
    </g>
    <g id="text_22">
     <!-- |dpen(θ)| -->
     <g transform="translate(389.304506 221.465937) scale(0.09 -0.09)">
      <use xlink:href="#DejaVuSans-7c"/>
      <use xlink:href="#DejaVuSans-64" x="33.691406"/>
      <use xlink:href="#DejaVuSans-70" x="97.167969"/>
      <use xlink:href="#DejaVuSans-65" x="160.644531"/>
      <use xlink:href="#DejaVuSans-6e" x="222.167969"/>
      <use xlink:href="#DejaVuSans-28" x="285.546875"/>
      <use xlink:href="#DejaVuSans-3b8" x="324.560547"/>
      <use xlink:href="#DejaVuSans-29" x="385.742188"/>
      <use xlink:href="#DejaVuSans-7c" x="424.755859"/>
     </g>
    </g>
    <g id="patch_11">
     <path d="M 11.007563 268.67
L 49.356 268.67
L 49.356 235.605
L 11.007563 235.605
z
" style="fill: #ffffff; stroke: #000000; stroke-linejoin: miter"/>
    </g>
    <g id="text_23">
     <!-- mscale -->
     <g transform="translate(14.842406 254.620937) scale(0.09 -0.09)">
      <defs>
       <path id="DejaVuSans-63" d="M 3122 3366
L 3122 2828
Q 2878 2963 2633 3030
Q 2388 3097 2138 3097
Q 1578 3097 1268 2742
Q 959 2388 959 1747
Q 959 1106 1268 751
Q 1578 397 2138 397
Q 2388 397 2633 464
Q 2878 531 3122 666
L 3122 134
Q 2881 22 2623 -34
Q 2366 -91 2075 -91
Q 1284 -91 818 406
Q 353 903 353 1747
Q 353 2603 823 3093
Q 1294 3584 2113 3584
Q 2378 3584 2631 3529
Q 2884 3475 3122 3366
z
" transform="scale(0.015625)"/>
      </defs>
      <use xlink:href="#DejaVuSans-6d"/>
      <use xlink:href="#DejaVuSans-73" x="97.412109"/>
      <use xlink:href="#DejaVuSans-63" x="149.511719"/>
      <use xlink:href="#DejaVuSans-61" x="204.492188"/>
      <use xlink:href="#DejaVuSans-6c" x="265.771484"/>
      <use xlink:href="#DejaVuSans-65" x="293.554688"/>
     </g>
    </g>
    <g id="patch_12">
     <path d="M 49.356 268.67
L 129.4848 268.67
L 129.4848 235.605
L 49.356 235.605
z
" style="fill: #ffffff; stroke: #000000; stroke-linejoin: miter"/>
    </g>
    <g id="text_24">
     <!-- 0.93 -->
     <g transform="translate(101.432857 254.620937) scale(0.09 -0.09)">
      <defs>
       <path id="DejaVuSans-39" d="M 703 97
L 703 672
Q 941 559 1184 500
Q 1428 441 1663 441
Q 2288 441 2617 861
Q 2947 1281 2994 2138
Q 2813 1869 2534 1725
Q 2256 1581 1919 1581
Q 1219 1581 811 2004
Q 403 2428 403 3163
Q 403 3881 828 4315
Q 1253 4750 1959 4750
Q 2769 4750 3195 4129
Q 3622 3509 3622 2328
Q 3622 1225 3098 567
Q 2575 -91 1691 -91
Q 1453 -91 1209 -44
Q 966 3 703 97
z
M 1959 2075
Q 2384 2075 2632 2365
Q 2881 2656 2881 3163
Q 2881 3666 2632 3958
Q 2384 4250 1959 4250
Q 1534 4250 1286 3958
Q 1038 3666 1038 3163
Q 1038 2656 1286 2365
Q 1534 2075 1959 2075
z
" transform="scale(0.015625)"/>
      </defs>
      <use xlink:href="#DejaVuSans-30"/>
      <use xlink:href="#DejaVuSans-2e" x="63.623047"/>
      <use xlink:href="#DejaVuSans-39" x="95.410156"/>
      <use xlink:href="#DejaVuSans-33" x="159.033203"/>
     </g>
    </g>
    <g id="patch_13">
     <path d="M 129.4848 268.67
L 209.6136 268.67
L 209.6136 235.605
L 129.4848 235.605
z
" style="fill: #ffffff; stroke: #000000; stroke-linejoin: miter"/>
    </g>
    <g id="text_25">
     <!-- 0.26 -->
     <g transform="translate(181.561657 254.620937) scale(0.09 -0.09)">
      <use xlink:href="#DejaVuSans-30"/>
      <use xlink:href="#DejaVuSans-2e" x="63.623047"/>
      <use xlink:href="#DejaVuSans-32" x="95.410156"/>
      <use xlink:href="#DejaVuSans-36" x="159.033203"/>
     </g>
    </g>
    <g id="patch_14">
     <path d="M 209.6136 268.67
L 289.7424 268.67
L 289.7424 235.605
L 209.6136 235.605
z
" style="fill: #ffffff; stroke: #000000; stroke-linejoin: miter"/>
    </g>
    <g id="text_26">
     <!-- 0.0 -->
     <g transform="translate(267.416707 254.620937) scale(0.09 -0.09)">
      <use xlink:href="#DejaVuSans-30"/>
      <use xlink:href="#DejaVuSans-2e" x="63.623047"/>
      <use xlink:href="#DejaVuSans-30" x="95.410156"/>
     </g>
    </g>
    <g id="patch_15">
     <path d="M 289.7424 268.67
L 369.8712 268.67
L 369.8712 235.605
L 289.7424 235.605
z
" style="fill: #ffffff; stroke: #000000; stroke-linejoin: miter"/>
    </g>
    <g id="text_27">
     <!-- 0.0 -->
     <g transform="translate(347.545507 254.620937) scale(0.09 -0.09)">
      <use xlink:href="#DejaVuSans-30"/>
      <use xlink:href="#DejaVuSans-2e" x="63.623047"/>
      <use xlink:href="#DejaVuSans-30" x="95.410156"/>
     </g>
    </g>
    <g id="patch_16">
     <path d="M 369.8712 268.67
L 450 268.67
L 450 235.605
L 369.8712 235.605
z
" style="fill: #ffffff; stroke: #000000; stroke-linejoin: miter"/>
    </g>
    <g id="text_28">
     <!-- 0.0 -->
     <g transform="translate(427.674307 254.620937) scale(0.09 -0.09)">
      <use xlink:href="#DejaVuSans-30"/>
      <use xlink:href="#DejaVuSans-2e" x="63.623047"/>
      <use xlink:href="#DejaVuSans-30" x="95.410156"/>
     </g>
    </g>
    <g id="patch_17">
     <path d="M 11.007563 301.735
L 49.356 301.735
L 49.356 268.67
L 11.007563 268.67
z
" style="fill: #ffffff; stroke: #000000; stroke-linejoin: miter"/>
    </g>
    <g id="text_29">
     <!-- lscale -->
     <g transform="translate(14.842406 287.685937) scale(0.09 -0.09)">
      <use xlink:href="#DejaVuSans-6c"/>
      <use xlink:href="#DejaVuSans-73" x="27.783203"/>
      <use xlink:href="#DejaVuSans-63" x="79.882812"/>
      <use xlink:href="#DejaVuSans-61" x="134.863281"/>
      <use xlink:href="#DejaVuSans-6c" x="196.142578"/>
      <use xlink:href="#DejaVuSans-65" x="223.925781"/>
     </g>
    </g>
    <g id="patch_18">
     <path d="M 49.356 301.735
L 129.4848 301.735
L 129.4848 268.67
L 49.356 268.67
z
" style="fill: #ffffff; stroke: #000000; stroke-linejoin: miter"/>
    </g>
    <g id="text_30">
     <!-- 0.11 -->
     <g transform="translate(101.432857 287.685937) scale(0.09 -0.09)">
      <use xlink:href="#DejaVuSans-30"/>
      <use xlink:href="#DejaVuSans-2e" x="63.623047"/>
      <use xlink:href="#DejaVuSans-31" x="95.410156"/>
      <use xlink:href="#DejaVuSans-31" x="159.033203"/>
     </g>
    </g>
    <g id="patch_19">
     <path d="M 129.4848 301.735
L 209.6136 301.735
L 209.6136 268.67
L 129.4848 268.67
z
" style="fill: #ffffff; stroke: #000000; stroke-linejoin: miter"/>
    </g>
    <g id="text_31">
     <!-- 0.03 -->
     <g transform="translate(181.561657 287.685937) scale(0.09 -0.09)">
      <use xlink:href="#DejaVuSans-30"/>
      <use xlink:href="#DejaVuSans-2e" x="63.623047"/>
      <use xlink:href="#DejaVuSans-30" x="95.410156"/>
      <use xlink:href="#DejaVuSans-33" x="159.033203"/>
     </g>
    </g>
    <g id="patch_20">
     <path d="M 209.6136 301.735
L 289.7424 301.735
L 289.7424 268.67
L 209.6136 268.67
z
" style="fill: #ffffff; stroke: #000000; stroke-linejoin: miter"/>
    </g>
    <g id="text_32">
     <!-- 0.0 -->
     <g transform="translate(267.416707 287.685937) scale(0.09 -0.09)">
      <use xlink:href="#DejaVuSans-30"/>
      <use xlink:href="#DejaVuSans-2e" x="63.623047"/>
      <use xlink:href="#DejaVuSans-30" x="95.410156"/>
     </g>
    </g>
    <g id="patch_21">
     <path d="M 289.7424 301.735
L 369.8712 301.735
L 369.8712 268.67
L 289.7424 268.67
z
" style="fill: #ffffff; stroke: #000000; stroke-linejoin: miter"/>
    </g>
    <g id="text_33">
     <!-- 0.0 -->
     <g transform="translate(347.545507 287.685937) scale(0.09 -0.09)">
      <use xlink:href="#DejaVuSans-30"/>
      <use xlink:href="#DejaVuSans-2e" x="63.623047"/>
      <use xlink:href="#DejaVuSans-30" x="95.410156"/>
     </g>
    </g>
    <g id="patch_22">
     <path d="M 369.8712 301.735
L 450 301.735
L 450 268.67
L 369.8712 268.67
z
" style="fill: #ffffff; stroke: #000000; stroke-linejoin: miter"/>
    </g>
    <g id="text_34">
     <!-- 0.0 -->
     <g transform="translate(427.674307 287.685937) scale(0.09 -0.09)">
      <use xlink:href="#DejaVuSans-30"/>
      <use xlink:href="#DejaVuSans-2e" x="63.623047"/>
      <use xlink:href="#DejaVuSans-30" x="95.410156"/>
     </g>
    </g>
    <g id="patch_23">
     <path d="M 11.007563 334.8
L 49.356 334.8
L 49.356 301.735
L 11.007563 301.735
z
" style="fill: #ffffff; stroke: #000000; stroke-linejoin: miter"/>
    </g>
    <g id="text_35">
     <!-- sigv -->
     <g transform="translate(14.842406 320.750937) scale(0.09 -0.09)">
      <use xlink:href="#DejaVuSans-73"/>
      <use xlink:href="#DejaVuSans-69" x="52.099609"/>
      <use xlink:href="#DejaVuSans-67" x="79.882812"/>
      <use xlink:href="#DejaVuSans-76" x="143.359375"/>
     </g>
    </g>
    <g id="patch_24">
     <path d="M 49.356 334.8
L 129.4848 334.8
L 129.4848 301.735
L 49.356 301.735
z
" style="fill: #ffffff; stroke: #000000; stroke-linejoin: miter"/>
    </g>
    <g id="text_36">
     <!-- 0.24 -->
     <g transform="translate(101.432857 320.750937) scale(0.09 -0.09)">
      <use xlink:href="#DejaVuSans-30"/>
      <use xlink:href="#DejaVuSans-2e" x="63.623047"/>
      <use xlink:href="#DejaVuSans-32" x="95.410156"/>
      <use xlink:href="#DejaVuSans-34" x="159.033203"/>
     </g>
    </g>
    <g id="patch_25">
     <path d="M 129.4848 334.8
L 209.6136 334.8
L 209.6136 301.735
L 129.4848 301.735
z
" style="fill: #ffffff; stroke: #000000; stroke-linejoin: miter"/>
    </g>
    <g id="text_37">
     <!-- 0.03 -->
     <g transform="translate(181.561657 320.750937) scale(0.09 -0.09)">
      <use xlink:href="#DejaVuSans-30"/>
      <use xlink:href="#DejaVuSans-2e" x="63.623047"/>
      <use xlink:href="#DejaVuSans-30" x="95.410156"/>
      <use xlink:href="#DejaVuSans-33" x="159.033203"/>
     </g>
    </g>
    <g id="patch_26">
     <path d="M 209.6136 334.8
L 289.7424 334.8
L 289.7424 301.735
L 209.6136 301.735
z
" style="fill: #ffffff; stroke: #000000; stroke-linejoin: miter"/>
    </g>
    <g id="text_38">
     <!-- 0.0 -->
     <g transform="translate(267.416707 320.750937) scale(0.09 -0.09)">
      <use xlink:href="#DejaVuSans-30"/>
      <use xlink:href="#DejaVuSans-2e" x="63.623047"/>
      <use xlink:href="#DejaVuSans-30" x="95.410156"/>
     </g>
    </g>
    <g id="patch_27">
     <path d="M 289.7424 334.8
L 369.8712 334.8
L 369.8712 301.735
L 289.7424 301.735
z
" style="fill: #ffffff; stroke: #000000; stroke-linejoin: miter"/>
    </g>
    <g id="text_39">
     <!-- 0.0 -->
     <g transform="translate(347.545507 320.750937) scale(0.09 -0.09)">
      <use xlink:href="#DejaVuSans-30"/>
      <use xlink:href="#DejaVuSans-2e" x="63.623047"/>
      <use xlink:href="#DejaVuSans-30" x="95.410156"/>
     </g>
    </g>
    <g id="patch_28">
     <path d="M 369.8712 334.8
L 450 334.8
L 450 301.735
L 369.8712 301.735
z
" style="fill: #ffffff; stroke: #000000; stroke-linejoin: miter"/>
    </g>
    <g id="text_40">
     <!-- 0.0 -->
     <g transform="translate(427.674307 320.750937) scale(0.09 -0.09)">
      <use xlink:href="#DejaVuSans-30"/>
      <use xlink:href="#DejaVuSans-2e" x="63.623047"/>
      <use xlink:href="#DejaVuSans-30" x="95.410156"/>
     </g>
    </g>
   </g>
  </g>
 </g>
 <defs>
  <clipPath id="pbffdf6df18">
   <rect x="49.356" y="28.32" width="400.644" height="132.26"/>
  </clipPath>
 </defs>
</svg>
